<?xml version="1.0" standalone="no"?>
<!DOCTYPE svg PUBLIC "-//W3C//DTD SVG 20010904//EN"
 "http://www.w3.org/TR/2001/REC-SVG-20010904/DTD/svg10.dtd">
<svg version="1.0" xmlns="http://www.w3.org/2000/svg"
 width="3464.000000pt" height="3464.000000pt" viewBox="0 0 3464.000000 3464.000000"
 preserveAspectRatio="xMidYMid meet">
<metadata>
Created by potrace 1.14, written by Peter Selinger 2001-2017
</metadata>
<g transform="translate(0.000000,3464.000000) scale(0.100000,-0.100000)"
fill="#000000" stroke="none">
<path d="M0 17320 l0 -17320 17320 0 17320 0 0 17320 0 17320 -17320 0 -17320
0 0 -17320z m28031 3778 c23 -26 23 -5 -1 -204 -14 -108 -29 -188 -44 -228
-13 -33 -30 -83 -37 -111 -7 -27 -20 -62 -30 -76 -10 -14 -21 -38 -25 -55 -19
-78 -154 -275 -263 -384 -73 -73 -212 -180 -234 -180 -3 0 -28 -14 -54 -30
-26 -17 -65 -35 -86 -41 -21 -5 -59 -22 -85 -38 -42 -24 -47 -32 -50 -66 -2
-25 6 -61 21 -99 14 -34 33 -95 42 -136 10 -41 21 -80 26 -86 5 -6 18 -56 30
-110 11 -54 29 -128 39 -164 11 -36 24 -119 30 -184 6 -65 13 -122 15 -127 12
-19 30 -266 28 -394 -3 -188 -44 -473 -84 -577 -16 -42 -29 -85 -29 -95 0 -10
-13 -45 -29 -78 -16 -33 -37 -76 -45 -95 -94 -215 -341 -466 -591 -601 -27
-14 -73 -39 -102 -54 -59 -32 -65 -44 -88 -165 -9 -47 -20 -98 -25 -115 -5
-16 -14 -73 -19 -125 -6 -52 -20 -130 -31 -173 -11 -43 -27 -127 -35 -186 -8
-59 -23 -132 -34 -162 -11 -30 -25 -92 -31 -139 -6 -47 -21 -112 -32 -145 -11
-32 -26 -99 -34 -148 -8 -49 -21 -102 -29 -118 -9 -16 -22 -66 -31 -111 -9
-46 -24 -103 -35 -126 -10 -24 -25 -80 -33 -125 -8 -45 -24 -102 -35 -127 -11
-25 -25 -68 -31 -95 -5 -28 -19 -70 -30 -95 -11 -25 -24 -63 -30 -85 -5 -23
-28 -65 -50 -95 -51 -69 -60 -102 -60 -228 0 -108 -5 -126 -50 -178 -15 -18
-33 -55 -40 -85 -7 -30 -21 -69 -31 -86 -10 -18 -25 -54 -32 -80 -8 -27 -27
-71 -41 -99 -14 -29 -26 -58 -26 -66 0 -8 -12 -37 -26 -64 -15 -27 -33 -70
-41 -97 -7 -26 -22 -62 -33 -80 -10 -17 -24 -52 -31 -77 -7 -25 -18 -52 -25
-60 -7 -8 -24 -42 -39 -75 -14 -32 -34 -67 -44 -76 -23 -21 -175 -74 -261 -90
-36 -6 -92 -22 -125 -35 -34 -13 -91 -28 -127 -34 -36 -5 -95 -19 -130 -30
-34 -10 -106 -26 -158 -34 -53 -8 -110 -22 -127 -31 -17 -8 -80 -22 -139 -31
-60 -8 -145 -26 -189 -39 -44 -13 -109 -27 -145 -30 -36 -4 -94 -14 -130 -22
-73 -16 -171 -35 -305 -57 -49 -9 -121 -22 -160 -30 -38 -8 -113 -19 -165 -26
-52 -6 -131 -20 -175 -30 -44 -10 -123 -21 -175 -25 -52 -4 -126 -13 -165 -20
-112 -22 -270 -43 -418 -55 -77 -6 -164 -18 -195 -26 -31 -8 -160 -22 -286
-30 -127 -8 -256 -19 -286 -24 -30 -5 -95 -16 -145 -24 -52 -9 -221 -20 -403
-25 -289 -10 -479 -25 -642 -52 -40 -7 -421 -14 -990 -20 -509 -5 -974 -13
-1035 -19 -229 -23 -341 -27 -720 -29 -296 -1 -409 2 -470 12 -55 10 -124 13
-220 9 -77 -2 -214 1 -305 7 -187 12 -837 28 -1480 35 -421 5 -521 9 -925 41
-104 8 -302 20 -440 25 -137 6 -281 16 -320 21 -38 5 -101 14 -140 19 -38 5
-167 16 -285 24 -118 9 -260 24 -315 35 -55 11 -167 24 -250 30 -82 6 -213 22
-290 35 -77 14 -185 30 -240 36 -55 7 -125 18 -155 26 -30 8 -102 19 -160 25
-58 6 -148 20 -200 30 -126 26 -177 35 -285 49 -49 7 -97 16 -105 20 -8 5 -74
18 -145 29 -72 12 -139 26 -150 30 -35 16 -107 31 -196 41 -48 6 -112 19 -142
29 -31 11 -96 27 -144 36 -48 9 -113 24 -143 35 -30 10 -97 25 -148 34 -52 9
-106 22 -120 30 -15 8 -65 21 -112 30 -47 9 -109 25 -138 36 -30 11 -75 25
-100 31 -26 5 -59 21 -74 34 -28 24 -118 185 -118 211 0 8 -13 38 -29 67 -16
28 -32 66 -35 82 -4 17 -18 53 -31 80 -31 65 -71 162 -101 249 -13 38 -30 78
-37 90 -8 11 -17 37 -21 58 -4 20 -20 62 -37 93 -29 54 -30 60 -23 138 l6 82
-36 50 c-77 106 -96 142 -111 212 -9 39 -24 89 -34 110 -10 21 -24 65 -31 98
-7 33 -21 78 -32 100 -11 22 -26 78 -34 124 -9 47 -20 93 -25 104 -14 25 -36
103 -44 157 -4 24 -16 64 -26 88 -11 24 -26 84 -33 132 -8 48 -24 114 -34 148
-11 33 -26 96 -32 139 -7 43 -20 104 -31 135 -10 32 -25 106 -33 165 -8 60
-24 144 -35 188 -12 44 -26 123 -32 175 -5 52 -14 109 -19 125 -5 17 -16 68
-25 115 -27 142 -21 135 -165 206 -89 44 -252 155 -307 210 -7 7 -23 21 -35
31 -27 22 -134 144 -169 192 -102 144 -203 377 -235 541 -46 237 -55 302 -60
452 -5 134 -2 192 15 323 12 88 28 214 35 280 8 66 21 140 30 165 10 25 25 88
36 140 10 52 25 109 34 125 8 17 22 64 31 105 9 41 25 94 36 117 21 43 27 91
15 111 -10 17 -94 61 -140 73 -22 6 -66 26 -96 45 -31 19 -61 34 -67 34 -6 0
-13 4 -15 8 -1 4 -37 33 -78 64 -84 62 -164 143 -230 233 -24 33 -48 65 -52
70 -12 15 -55 94 -79 145 -11 25 -31 68 -44 95 -13 28 -30 79 -39 114 -9 36
-20 69 -25 75 -13 17 -22 62 -40 202 -20 158 -15 184 34 184 19 0 36 -4 39 -9
4 -5 29 -14 58 -20 28 -6 56 -18 62 -26 6 -8 43 -23 81 -32 39 -10 72 -20 75
-23 15 -15 80 -40 117 -46 24 -4 43 -10 43 -15 0 -5 8 -9 18 -9 10 0 22 -4 27
-9 14 -12 105 -41 131 -41 12 0 27 -7 34 -15 7 -8 20 -15 30 -15 10 0 31 -7
46 -15 16 -8 38 -15 49 -15 11 0 47 -14 80 -30 33 -16 83 -33 110 -36 28 -4
60 -12 72 -20 12 -7 61 -23 110 -35 48 -12 108 -33 133 -46 25 -12 55 -23 67
-23 25 0 73 -20 73 -30 0 -7 -104 -50 -121 -50 -5 0 -38 -13 -74 -30 -36 -16
-71 -30 -77 -30 -18 0 -108 -102 -114 -129 -3 -14 -17 -62 -31 -106 -22 -70
-25 -98 -24 -225 1 -124 4 -156 25 -220 13 -41 26 -89 30 -106 9 -38 84 -117
190 -199 43 -33 92 -71 110 -85 32 -26 83 -61 146 -98 19 -12 46 -31 60 -44
14 -13 46 -41 70 -62 171 -149 299 -289 382 -420 30 -47 72 -161 83 -225 8
-42 18 -88 23 -102 17 -42 40 -150 47 -212 4 -32 17 -95 30 -140 13 -45 26
-109 30 -142 3 -33 17 -101 30 -150 14 -50 29 -124 35 -165 6 -40 21 -110 34
-154 14 -45 27 -101 31 -126 4 -25 17 -81 30 -125 13 -44 29 -109 35 -144 6
-35 20 -86 31 -114 11 -28 26 -80 34 -116 8 -37 23 -88 34 -113 11 -26 25 -75
31 -110 7 -34 20 -79 31 -100 10 -20 25 -64 33 -95 7 -32 21 -73 30 -92 10
-18 28 -63 40 -99 31 -89 61 -164 97 -237 16 -33 29 -65 29 -71 0 -6 10 -26
23 -45 12 -19 29 -50 36 -69 8 -19 24 -51 36 -70 12 -19 41 -69 65 -110 87
-149 291 -387 376 -439 18 -11 35 -24 38 -30 4 -6 33 -23 64 -37 31 -15 64
-32 72 -39 8 -7 29 -15 45 -19 17 -4 55 -20 85 -36 31 -15 74 -32 95 -35 22
-4 60 -16 85 -26 25 -11 95 -30 155 -43 61 -13 135 -31 165 -39 30 -8 89 -18
130 -22 41 -4 138 -17 215 -30 206 -35 511 -49 1050 -49 527 -1 924 15 1140
45 77 11 192 24 255 30 126 11 215 24 300 45 30 7 107 20 170 28 63 9 138 24
166 34 28 11 72 22 98 26 59 9 250 77 301 108 50 29 80 46 143 80 28 15 63 39
78 53 15 14 30 25 35 25 4 0 25 15 46 33 22 17 57 46 78 62 70 53 228 212 295
295 36 45 80 98 98 118 17 20 32 42 32 49 0 7 3 13 8 13 4 0 21 23 37 51 17
28 39 62 50 77 27 36 81 127 105 176 11 23 29 55 39 71 11 17 20 36 20 44 1 8
13 35 29 60 15 25 33 64 41 86 7 22 19 47 26 55 7 8 20 40 29 70 10 30 26 71
36 90 10 19 25 58 33 86 8 28 22 65 31 81 8 17 23 61 32 99 10 38 27 92 39
119 12 28 26 72 30 100 4 27 17 77 30 110 13 33 28 90 34 127 6 36 20 95 32
130 11 34 26 97 33 138 8 41 23 104 34 140 11 36 23 88 27 115 8 63 23 137 41
195 7 25 18 81 24 125 6 44 22 114 35 155 13 41 26 102 30 135 4 33 23 110 42
170 48 152 115 247 233 330 60 42 199 115 221 115 8 0 52 14 98 30 142 50 350
67 566 46 105 -10 166 -21 205 -36 30 -12 73 -27 95 -32 55 -13 178 -73 246
-121 118 -82 231 -247 245 -358 3 -30 15 -81 25 -114 11 -33 28 -110 39 -171
11 -61 26 -129 34 -151 8 -22 22 -87 31 -144 9 -57 24 -133 35 -169 10 -36 23
-96 30 -135 6 -38 19 -95 30 -126 10 -30 26 -97 35 -148 9 -51 24 -114 35
-141 11 -27 22 -72 26 -101 4 -29 17 -79 30 -109 13 -31 30 -87 38 -124 9 -37
23 -81 32 -98 9 -17 25 -63 36 -102 11 -39 28 -84 37 -101 10 -16 21 -45 25
-64 3 -19 20 -64 37 -100 17 -36 41 -88 54 -116 82 -181 244 -475 279 -504 9
-7 16 -18 16 -24 0 -19 150 -208 240 -302 73 -77 218 -213 246 -231 24 -15 77
-55 150 -113 6 -5 31 -19 55 -31 24 -12 51 -29 60 -36 21 -19 169 -94 185 -94
6 0 36 -11 66 -25 30 -14 91 -32 135 -40 45 -9 97 -22 115 -29 18 -8 85 -22
148 -31 63 -9 156 -25 205 -36 50 -11 140 -24 200 -30 61 -5 198 -20 305 -33
273 -35 640 -51 1165 -51 496 0 846 16 1025 46 63 11 167 27 230 34 63 8 138
21 166 30 28 8 95 24 150 35 55 11 117 28 139 39 22 10 60 22 85 26 25 4 63
17 85 30 22 12 57 27 78 34 49 16 166 77 194 101 12 10 32 24 45 30 68 35 315
326 383 453 11 20 41 74 66 120 25 45 50 93 54 107 4 14 18 41 31 60 12 19 26
49 30 65 3 17 19 53 35 81 16 28 29 60 29 71 0 11 12 44 28 74 15 30 33 79 41
109 7 30 20 65 28 78 8 13 23 58 34 100 10 42 28 100 39 127 10 28 24 76 29
109 6 32 17 72 25 88 8 16 22 61 31 101 9 40 28 104 40 142 13 39 27 95 31
125 3 30 17 87 30 125 12 39 28 102 34 140 6 39 20 104 32 145 11 41 26 113
33 160 8 47 21 112 30 145 15 57 21 85 46 235 6 36 17 83 25 105 7 22 20 83
29 136 8 53 23 116 33 140 10 24 24 69 31 100 6 31 25 77 41 103 17 26 30 49
30 51 0 16 112 147 205 240 162 162 209 201 345 287 54 35 105 73 176 133 7 6
32 26 55 45 91 74 116 101 140 147 13 26 27 50 30 53 24 19 41 268 29 423 -9
113 -15 142 -41 197 -36 78 -76 122 -132 145 -23 10 -58 25 -77 35 -19 10 -69
23 -111 30 -41 7 -86 20 -99 30 -23 17 -23 19 -7 44 18 27 75 56 111 56 25 0
106 27 122 41 6 5 38 14 70 20 61 10 90 19 162 51 23 10 65 23 93 28 28 5 63
16 77 24 15 8 52 22 82 31 30 9 75 27 100 40 25 12 63 26 85 30 22 4 60 17 85
30 25 13 68 31 97 40 29 9 69 25 90 36 20 10 46 19 56 19 11 0 45 13 76 30 53
29 130 57 160 59 7 1 22 -9 32 -21z"/>
<path d="M16770 14704 c-49 -8 -100 -25 -100 -34 0 -5 -10 -12 -22 -16 -72
-22 -166 -151 -197 -269 -16 -61 -13 -149 7 -192 9 -21 20 -40 23 -43 11 -9
29 -49 29 -64 0 -36 155 -162 215 -175 44 -9 1090 -11 1156 -2 51 7 79 17 107
38 20 16 49 34 63 42 14 7 33 26 43 42 9 16 21 29 27 29 5 0 9 5 9 12 0 6 16
44 35 85 52 109 47 204 -18 332 -33 67 -107 151 -133 151 -8 0 -25 11 -38 24
-38 41 -107 46 -666 45 -283 -1 -526 -3 -540 -5z"/>
</g>
</svg>
